<mxfile host="app.diagrams.net" modified="2023-07-26T22:20:49.799Z" agent="Mozilla/5.0 (Windows NT 10.0; Win64; x64) AppleWebKit/537.36 (KHTML, like Gecko) Chrome/114.0.0.0 Safari/537.36" etag="JygdwMjZ_Wxk557B_agU" version="21.6.5" type="device">
  <diagram id="C5RBs43oDa-KdzZeNtuy" name="Page-1">
    <mxGraphModel dx="2901" dy="756" grid="1" gridSize="10" guides="1" tooltips="1" connect="1" arrows="1" fold="1" page="1" pageScale="1" pageWidth="827" pageHeight="1169" math="0" shadow="0">
      <root>
        <mxCell id="WIyWlLk6GJQsqaUBKTNV-0" />
        <mxCell id="WIyWlLk6GJQsqaUBKTNV-1" parent="WIyWlLk6GJQsqaUBKTNV-0" />
        <mxCell id="Wj-aPVbo4LLmOf4uWdjf-8" value="General Behavior" style="swimlane;whiteSpace=wrap;html=1;" parent="WIyWlLk6GJQsqaUBKTNV-1" vertex="1">
          <mxGeometry x="-550" y="20" width="700" height="700" as="geometry">
            <mxRectangle x="190" y="40" width="140" height="30" as="alternateBounds" />
          </mxGeometry>
        </mxCell>
        <mxCell id="Wj-aPVbo4LLmOf4uWdjf-1" value="Is Player Close" style="rounded=0;whiteSpace=wrap;html=1;shape=rhombus;perimeter=rhombusPerimeter;" parent="Wj-aPVbo4LLmOf4uWdjf-8" vertex="1">
          <mxGeometry x="30" y="310" width="130" height="100" as="geometry" />
        </mxCell>
        <mxCell id="Wj-aPVbo4LLmOf4uWdjf-2" style="edgeStyle=orthogonalEdgeStyle;rounded=0;orthogonalLoop=1;jettySize=auto;html=1;entryX=0.5;entryY=0;entryDx=0;entryDy=0;" parent="Wj-aPVbo4LLmOf4uWdjf-8" source="Wj-aPVbo4LLmOf4uWdjf-9" target="Wj-aPVbo4LLmOf4uWdjf-1" edge="1">
          <mxGeometry relative="1" as="geometry">
            <mxPoint x="160" y="170" as="sourcePoint" />
          </mxGeometry>
        </mxCell>
        <mxCell id="Wj-aPVbo4LLmOf4uWdjf-6" value="Alert Mode" style="rounded=0;whiteSpace=wrap;html=1;" parent="Wj-aPVbo4LLmOf4uWdjf-8" vertex="1">
          <mxGeometry x="35" y="460" width="120" height="60" as="geometry" />
        </mxCell>
        <mxCell id="Wj-aPVbo4LLmOf4uWdjf-3" style="edgeStyle=orthogonalEdgeStyle;rounded=0;orthogonalLoop=1;jettySize=auto;html=1;entryX=0.5;entryY=0;entryDx=0;entryDy=0;" parent="Wj-aPVbo4LLmOf4uWdjf-8" source="Wj-aPVbo4LLmOf4uWdjf-1" target="Wj-aPVbo4LLmOf4uWdjf-6" edge="1">
          <mxGeometry relative="1" as="geometry">
            <mxPoint x="40" y="500" as="targetPoint" />
          </mxGeometry>
        </mxCell>
        <mxCell id="Wj-aPVbo4LLmOf4uWdjf-4" value="YES" style="edgeLabel;html=1;align=center;verticalAlign=middle;resizable=0;points=[];" parent="Wj-aPVbo4LLmOf4uWdjf-3" vertex="1" connectable="0">
          <mxGeometry x="-0.1571" y="1" relative="1" as="geometry">
            <mxPoint as="offset" />
          </mxGeometry>
        </mxCell>
        <mxCell id="Wj-aPVbo4LLmOf4uWdjf-27" style="edgeStyle=orthogonalEdgeStyle;rounded=0;orthogonalLoop=1;jettySize=auto;html=1;entryX=0.5;entryY=0;entryDx=0;entryDy=0;exitX=0.5;exitY=1;exitDx=0;exitDy=0;" parent="Wj-aPVbo4LLmOf4uWdjf-8" source="Wj-aPVbo4LLmOf4uWdjf-9" target="Wj-aPVbo4LLmOf4uWdjf-25" edge="1">
          <mxGeometry relative="1" as="geometry">
            <Array as="points">
              <mxPoint x="210" y="270" />
              <mxPoint x="370" y="270" />
            </Array>
          </mxGeometry>
        </mxCell>
        <mxCell id="Wj-aPVbo4LLmOf4uWdjf-33" style="edgeStyle=orthogonalEdgeStyle;rounded=0;orthogonalLoop=1;jettySize=auto;html=1;entryX=0.5;entryY=0;entryDx=0;entryDy=0;" parent="Wj-aPVbo4LLmOf4uWdjf-8" source="Wj-aPVbo4LLmOf4uWdjf-9" target="Wj-aPVbo4LLmOf4uWdjf-30" edge="1">
          <mxGeometry relative="1" as="geometry" />
        </mxCell>
        <mxCell id="Wj-aPVbo4LLmOf4uWdjf-51" style="edgeStyle=orthogonalEdgeStyle;rounded=0;orthogonalLoop=1;jettySize=auto;html=1;entryX=0.5;entryY=0;entryDx=0;entryDy=0;exitX=0.5;exitY=1;exitDx=0;exitDy=0;" parent="Wj-aPVbo4LLmOf4uWdjf-8" source="Wj-aPVbo4LLmOf4uWdjf-9" target="Wj-aPVbo4LLmOf4uWdjf-50" edge="1">
          <mxGeometry relative="1" as="geometry">
            <Array as="points">
              <mxPoint x="210" y="270" />
              <mxPoint x="525" y="270" />
            </Array>
          </mxGeometry>
        </mxCell>
        <mxCell id="Wj-aPVbo4LLmOf4uWdjf-9" value="Sequencer" style="ellipse;whiteSpace=wrap;html=1;" parent="Wj-aPVbo4LLmOf4uWdjf-8" vertex="1">
          <mxGeometry x="150" y="150" width="120" height="80" as="geometry" />
        </mxCell>
        <mxCell id="Wj-aPVbo4LLmOf4uWdjf-23" value="Calculate a Random Position" style="rounded=1;whiteSpace=wrap;html=1;" parent="Wj-aPVbo4LLmOf4uWdjf-8" vertex="1">
          <mxGeometry x="175" y="595" width="120" height="60" as="geometry" />
        </mxCell>
        <mxCell id="Wj-aPVbo4LLmOf4uWdjf-25" value="One Step To Random Position" style="rounded=1;whiteSpace=wrap;html=1;" parent="Wj-aPVbo4LLmOf4uWdjf-8" vertex="1">
          <mxGeometry x="310" y="330" width="120" height="60" as="geometry" />
        </mxCell>
        <mxCell id="Wj-aPVbo4LLmOf4uWdjf-28" value="Wait One Frame" style="rounded=1;whiteSpace=wrap;html=1;" parent="Wj-aPVbo4LLmOf4uWdjf-8" vertex="1">
          <mxGeometry x="330" y="460" width="120" height="60" as="geometry" />
        </mxCell>
        <mxCell id="Wj-aPVbo4LLmOf4uWdjf-30" value="Is In Calculated Random Position&amp;nbsp;" style="rhombus;whiteSpace=wrap;html=1;" parent="Wj-aPVbo4LLmOf4uWdjf-8" vertex="1">
          <mxGeometry x="170" y="307.5" width="130" height="105" as="geometry" />
        </mxCell>
        <mxCell id="Wj-aPVbo4LLmOf4uWdjf-35" value="" style="edgeStyle=orthogonalEdgeStyle;rounded=0;orthogonalLoop=1;jettySize=auto;html=1;entryX=0.5;entryY=0;entryDx=0;entryDy=0;" parent="Wj-aPVbo4LLmOf4uWdjf-8" source="Wj-aPVbo4LLmOf4uWdjf-30" target="Wj-aPVbo4LLmOf4uWdjf-37" edge="1">
          <mxGeometry relative="1" as="geometry">
            <mxPoint x="-315" y="635" as="targetPoint" />
            <mxPoint x="-315" y="455" as="sourcePoint" />
          </mxGeometry>
        </mxCell>
        <mxCell id="Wj-aPVbo4LLmOf4uWdjf-36" value="YES" style="edgeLabel;html=1;align=center;verticalAlign=middle;resizable=0;points=[];" parent="Wj-aPVbo4LLmOf4uWdjf-35" vertex="1" connectable="0">
          <mxGeometry x="-0.4054" y="3" relative="1" as="geometry">
            <mxPoint as="offset" />
          </mxGeometry>
        </mxCell>
        <mxCell id="Wj-aPVbo4LLmOf4uWdjf-46" style="edgeStyle=orthogonalEdgeStyle;rounded=0;orthogonalLoop=1;jettySize=auto;html=1;entryX=0;entryY=0.5;entryDx=0;entryDy=0;" parent="Wj-aPVbo4LLmOf4uWdjf-8" source="Wj-aPVbo4LLmOf4uWdjf-37" target="Wj-aPVbo4LLmOf4uWdjf-28" edge="1">
          <mxGeometry relative="1" as="geometry" />
        </mxCell>
        <mxCell id="Wj-aPVbo4LLmOf4uWdjf-47" value="YES" style="edgeLabel;html=1;align=center;verticalAlign=middle;resizable=0;points=[];" parent="Wj-aPVbo4LLmOf4uWdjf-46" vertex="1" connectable="0">
          <mxGeometry x="-0.1765" relative="1" as="geometry">
            <mxPoint as="offset" />
          </mxGeometry>
        </mxCell>
        <mxCell id="Wj-aPVbo4LLmOf4uWdjf-37" value="Is Waiting" style="rhombus;whiteSpace=wrap;html=1;" parent="Wj-aPVbo4LLmOf4uWdjf-8" vertex="1">
          <mxGeometry x="195" y="450" width="80" height="80" as="geometry" />
        </mxCell>
        <mxCell id="Wj-aPVbo4LLmOf4uWdjf-43" value="" style="edgeStyle=orthogonalEdgeStyle;rounded=0;orthogonalLoop=1;jettySize=auto;html=1;entryX=0.5;entryY=0;entryDx=0;entryDy=0;" parent="Wj-aPVbo4LLmOf4uWdjf-8" source="Wj-aPVbo4LLmOf4uWdjf-37" target="Wj-aPVbo4LLmOf4uWdjf-23" edge="1">
          <mxGeometry relative="1" as="geometry">
            <mxPoint x="235" y="585" as="targetPoint" />
            <mxPoint x="-315" y="570" as="sourcePoint" />
          </mxGeometry>
        </mxCell>
        <mxCell id="Wj-aPVbo4LLmOf4uWdjf-44" value="NO" style="edgeLabel;html=1;align=center;verticalAlign=middle;resizable=0;points=[];" parent="Wj-aPVbo4LLmOf4uWdjf-43" vertex="1" connectable="0">
          <mxGeometry x="-0.0769" y="4" relative="1" as="geometry">
            <mxPoint as="offset" />
          </mxGeometry>
        </mxCell>
        <mxCell id="Wj-aPVbo4LLmOf4uWdjf-49" style="edgeStyle=orthogonalEdgeStyle;rounded=0;orthogonalLoop=1;jettySize=auto;html=1;entryX=0.5;entryY=0;entryDx=0;entryDy=0;" parent="Wj-aPVbo4LLmOf4uWdjf-8" source="Wj-aPVbo4LLmOf4uWdjf-48" target="Wj-aPVbo4LLmOf4uWdjf-9" edge="1">
          <mxGeometry relative="1" as="geometry" />
        </mxCell>
        <mxCell id="Wj-aPVbo4LLmOf4uWdjf-48" value="Calculate a Random Position" style="rounded=1;whiteSpace=wrap;html=1;" parent="Wj-aPVbo4LLmOf4uWdjf-8" vertex="1">
          <mxGeometry x="150" y="40" width="120" height="60" as="geometry" />
        </mxCell>
        <mxCell id="Wj-aPVbo4LLmOf4uWdjf-52" style="edgeStyle=orthogonalEdgeStyle;rounded=0;orthogonalLoop=1;jettySize=auto;html=1;entryX=0.5;entryY=0;entryDx=0;entryDy=0;" parent="Wj-aPVbo4LLmOf4uWdjf-8" source="Wj-aPVbo4LLmOf4uWdjf-50" target="Wj-aPVbo4LLmOf4uWdjf-53" edge="1">
          <mxGeometry relative="1" as="geometry">
            <mxPoint x="525" y="460" as="targetPoint" />
          </mxGeometry>
        </mxCell>
        <mxCell id="Wj-aPVbo4LLmOf4uWdjf-54" value="YES" style="edgeLabel;html=1;align=center;verticalAlign=middle;resizable=0;points=[];" parent="Wj-aPVbo4LLmOf4uWdjf-52" vertex="1" connectable="0">
          <mxGeometry x="0.0316" y="2" relative="1" as="geometry">
            <mxPoint as="offset" />
          </mxGeometry>
        </mxCell>
        <mxCell id="Wj-aPVbo4LLmOf4uWdjf-50" value="Is In Calculated Random Position&amp;nbsp;" style="rhombus;whiteSpace=wrap;html=1;" parent="Wj-aPVbo4LLmOf4uWdjf-8" vertex="1">
          <mxGeometry x="460" y="307.5" width="130" height="105" as="geometry" />
        </mxCell>
        <mxCell id="Wj-aPVbo4LLmOf4uWdjf-53" value="Begin To Wait" style="rounded=1;whiteSpace=wrap;html=1;" parent="Wj-aPVbo4LLmOf4uWdjf-8" vertex="1">
          <mxGeometry x="465" y="460" width="120" height="60" as="geometry" />
        </mxCell>
        <mxCell id="Wj-aPVbo4LLmOf4uWdjf-10" value="Alert Mode" style="swimlane;whiteSpace=wrap;html=1;" parent="WIyWlLk6GJQsqaUBKTNV-1" vertex="1">
          <mxGeometry x="260" y="20" width="470" height="430" as="geometry">
            <mxRectangle x="190" y="40" width="140" height="30" as="alternateBounds" />
          </mxGeometry>
        </mxCell>
        <mxCell id="Wj-aPVbo4LLmOf4uWdjf-11" value="Check If Player Very Close" style="rounded=1;whiteSpace=wrap;html=1;" parent="Wj-aPVbo4LLmOf4uWdjf-10" vertex="1">
          <mxGeometry x="20" y="220" width="120" height="60" as="geometry" />
        </mxCell>
        <mxCell id="Wj-aPVbo4LLmOf4uWdjf-12" style="edgeStyle=orthogonalEdgeStyle;rounded=0;orthogonalLoop=1;jettySize=auto;html=1;entryX=0.5;entryY=0;entryDx=0;entryDy=0;" parent="Wj-aPVbo4LLmOf4uWdjf-10" source="Wj-aPVbo4LLmOf4uWdjf-16" target="Wj-aPVbo4LLmOf4uWdjf-11" edge="1">
          <mxGeometry relative="1" as="geometry">
            <mxPoint x="160" y="60" as="sourcePoint" />
          </mxGeometry>
        </mxCell>
        <mxCell id="Wj-aPVbo4LLmOf4uWdjf-13" value="Run Mode" style="rounded=0;whiteSpace=wrap;html=1;" parent="Wj-aPVbo4LLmOf4uWdjf-10" vertex="1">
          <mxGeometry x="20" y="350" width="120" height="60" as="geometry" />
        </mxCell>
        <mxCell id="Wj-aPVbo4LLmOf4uWdjf-14" style="edgeStyle=orthogonalEdgeStyle;rounded=0;orthogonalLoop=1;jettySize=auto;html=1;entryX=0.5;entryY=0;entryDx=0;entryDy=0;" parent="Wj-aPVbo4LLmOf4uWdjf-10" source="Wj-aPVbo4LLmOf4uWdjf-11" target="Wj-aPVbo4LLmOf4uWdjf-13" edge="1">
          <mxGeometry relative="1" as="geometry">
            <mxPoint x="40" y="390" as="targetPoint" />
          </mxGeometry>
        </mxCell>
        <mxCell id="Wj-aPVbo4LLmOf4uWdjf-15" value="YES" style="edgeLabel;html=1;align=center;verticalAlign=middle;resizable=0;points=[];" parent="Wj-aPVbo4LLmOf4uWdjf-14" vertex="1" connectable="0">
          <mxGeometry x="-0.1571" y="1" relative="1" as="geometry">
            <mxPoint as="offset" />
          </mxGeometry>
        </mxCell>
        <mxCell id="Wj-aPVbo4LLmOf4uWdjf-19" value="" style="edgeStyle=orthogonalEdgeStyle;rounded=0;orthogonalLoop=1;jettySize=auto;html=1;entryX=0.5;entryY=0;entryDx=0;entryDy=0;" parent="Wj-aPVbo4LLmOf4uWdjf-10" source="Wj-aPVbo4LLmOf4uWdjf-16" target="Wj-aPVbo4LLmOf4uWdjf-20" edge="1">
          <mxGeometry relative="1" as="geometry">
            <mxPoint x="210" y="200" as="targetPoint" />
          </mxGeometry>
        </mxCell>
        <mxCell id="Wj-aPVbo4LLmOf4uWdjf-16" value="Sequencer" style="ellipse;whiteSpace=wrap;html=1;" parent="Wj-aPVbo4LLmOf4uWdjf-10" vertex="1">
          <mxGeometry x="150" y="40" width="120" height="80" as="geometry" />
        </mxCell>
        <mxCell id="Wj-aPVbo4LLmOf4uWdjf-20" value="" style="rounded=1;whiteSpace=wrap;html=1;" parent="Wj-aPVbo4LLmOf4uWdjf-10" vertex="1">
          <mxGeometry x="150" y="220" width="120" height="60" as="geometry" />
        </mxCell>
      </root>
    </mxGraphModel>
  </diagram>
</mxfile>
